<?xml version="1.0" encoding="UTF-8"?>
<svg xmlns="http://www.w3.org/2000/svg" xmlns:xlink="http://www.w3.org/1999/xlink" width="180px" height="180px" viewBox="0 0 180 180" version="1.1">
<g id="surface1">
<path style=" stroke:none;fill-rule:evenodd;fill:rgb(70.980394%,59.607846%,58.823532%);fill-opacity:1;" d="M 132.890625 52.851562 C 130.976562 52.96875 129.445312 53.253906 128.273438 53.71875 C 127.121094 54.199219 126.050781 54.96875 125.070312 56.066406 C 124.332031 56.855469 123.78125 57.738281 123.402344 58.699219 C 123.039062 59.664062 122.78125 60.875 122.644531 62.335938 C 122.417969 64.300781 122.296875 66.609375 122.296875 69.285156 C 122.296875 69.285156 122.296875 110.882812 122.296875 110.882812 C 122.296875 114.769531 122.503906 117.636719 122.902344 119.523438 C 123.316406 121.410156 124.039062 122.910156 125.070312 124.042969 C 126.929688 126.046875 129.53125 127.121094 132.890625 127.316406 C 132.890625 127.316406 132.890625 128.585938 132.890625 128.585938 C 132.890625 128.585938 100.707031 128.585938 100.707031 128.585938 C 100.707031 128.585938 100.707031 127.316406 100.707031 127.316406 C 102.652344 127.199219 104.21875 126.890625 105.421875 126.390625 C 106.613281 125.871094 107.679688 125.101562 108.625 124.042969 C 109.660156 122.832031 110.382812 121.292969 110.761719 119.445312 C 111.15625 117.578125 111.347656 114.730469 111.347656 110.882812 C 111.347656 110.882812 111.347656 60.414062 111.347656 60.414062 C 111.347656 60.414062 104.59375 78.117188 104.59375 78.117188 C 104.78125 77.972656 104.972656 77.832031 105.148438 77.675781 C 105.210938 77.621094 105.261719 77.578125 105.328125 77.527344 C 105.394531 77.472656 105.441406 77.429688 105.507812 77.378906 C 105.507812 77.378906 105.867188 77.082031 105.867188 77.082031 C 105.933594 77.019531 105.988281 76.980469 106.058594 76.921875 C 106.058594 76.921875 106.410156 76.617188 106.410156 76.617188 C 106.585938 76.460938 106.773438 76.328125 106.941406 76.160156 C 106.941406 76.160156 108.507812 74.746094 108.507812 74.746094 C 108.703125 74.566406 109.898438 73.375 110.023438 73.292969 C 110.023438 73.292969 111.066406 74.347656 111.066406 74.347656 C 110.941406 74.535156 110.714844 74.710938 110.554688 74.871094 C 110.484375 74.945312 110.449219 74.960938 110.378906 75.023438 C 110.261719 75.128906 110.152344 75.25 110.035156 75.367188 C 109.976562 75.425781 109.925781 75.484375 109.859375 75.542969 C 109.859375 75.542969 107.535156 77.640625 107.535156 77.640625 C 106.792969 78.328125 105.28125 79.507812 104.53125 80.070312 C 104.21875 80.304688 103.902344 80.539062 103.582031 80.765625 C 103.582031 80.765625 85.34375 128.585938 85.34375 128.585938 C 85.34375 128.585938 84.296875 128.585938 84.296875 128.585938 C 84.296875 128.585938 58.449219 61.433594 58.449219 61.433594 C 58.449219 61.433594 58.449219 90 58.449219 90 C 58.59375 90.03125 58.742188 90.058594 58.886719 90.089844 C 59.300781 90.171875 59.722656 90.238281 60.160156 90.304688 C 60.160156 90.304688 62.148438 90.542969 62.148438 90.542969 C 62.148438 90.542969 63.914062 90.648438 63.914062 90.648438 C 64.066406 90.644531 64.121094 90.667969 64.242188 90.671875 C 64.476562 90.6875 64.757812 90.675781 65 90.671875 C 65.160156 90.671875 65.21875 90.695312 65.351562 90.699219 C 65.96875 90.71875 66.539062 90.667969 67.171875 90.671875 C 67.628906 90.675781 68.125 90.621094 68.585938 90.621094 C 68.585938 90.789062 68.613281 90.839844 68.613281 91 C 68.613281 91.402344 68.664062 91.710938 68.664062 92.113281 C 68.664062 92.113281 67.804688 92.164062 67.804688 92.164062 C 67.632812 92.171875 67.179688 92.183594 66.652344 92.1875 C 66.652344 92.1875 64.730469 92.1875 64.730469 92.1875 C 64.554688 92.183594 64.421875 92.179688 64.359375 92.171875 C 64.003906 92.121094 63.636719 92.167969 63.28125 92.136719 C 62.730469 92.089844 62.117188 92.066406 61.554688 91.992188 C 61.316406 91.964844 61.125 91.957031 60.890625 91.925781 C 60.058594 91.8125 59.246094 91.683594 58.449219 91.527344 C 58.449219 91.527344 58.449219 110.882812 58.449219 110.882812 C 58.449219 114.710938 58.632812 117.53125 59.015625 119.378906 C 62.078125 120.648438 65.347656 122.210938 68.839844 124.046875 C 72.179688 120.292969 74.859375 115.796875 76.882812 110.554688 C 76.882812 110.554688 78.109375 114.503906 78.109375 114.503906 C 75.390625 120.136719 72.40625 124.605469 69.054688 128.117188 C 69.054688 128.117188 69.054688 128.585938 69.054688 128.585938 C 69.054688 128.585938 68.601562 128.585938 68.601562 128.585938 C 64.535156 132.703125 59.933594 135.449219 54.621094 137.191406 C 31.417969 144.382812 22.949219 125.140625 33.324219 118.25 C 33.324219 118.25 33.300781 118.257812 33.300781 118.257812 C 38.914062 114.417969 46.339844 114.664062 56.011719 118.203125 C 56.261719 116.398438 56.382812 113.960938 56.382812 110.882812 C 56.382812 110.882812 56.382812 91.054688 56.382812 91.054688 C 55.871094 90.917969 55.359375 90.765625 54.84375 90.59375 C 51.953125 89.628906 49.257812 88.191406 46.75 86.484375 C 46.667969 86.429688 46.605469 86.382812 46.53125 86.320312 C 46.464844 86.257812 46.394531 86.203125 46.328125 86.144531 C 46.253906 86.085938 46.210938 86.046875 46.132812 85.988281 C 46.132812 85.988281 45.636719 85.550781 45.636719 85.550781 C 45.28125 85.253906 44.914062 84.902344 44.585938 84.578125 C 44.585938 84.578125 43.425781 83.3125 43.425781 83.3125 C 43.386719 83.265625 43.390625 83.257812 43.347656 83.210938 C 43.285156 83.140625 43.246094 83.097656 43.183594 83.023438 C 42.515625 82.199219 41.902344 81.335938 41.371094 80.414062 C 39.671875 77.464844 38.894531 74.460938 38.894531 70.886719 C 38.894531 68.929688 39.144531 67.359375 39.5 65.601562 C 39.707031 64.582031 39.972656 63.785156 40.234375 62.824219 C 40.234375 62.824219 40.523438 61.925781 40.523438 61.925781 C 40.742188 61.355469 40.925781 60.769531 41.152344 60.203125 C 41.730469 58.765625 43.21875 55.3125 44.207031 53.859375 C 44.207031 53.859375 44.941406 52.824219 44.941406 52.824219 C 45.222656 52.449219 45.503906 52.074219 45.792969 51.699219 C 45.792969 51.699219 45.792969 51.582031 45.792969 51.582031 C 45.792969 51.582031 45.886719 51.582031 45.886719 51.582031 C 46.335938 51 46.792969 50.429688 47.265625 49.867188 C 47.265625 49.867188 48.921875 48.011719 48.921875 48.011719 C 49.015625 47.902344 49.121094 47.808594 49.226562 47.707031 C 49.289062 47.640625 49.304688 47.609375 49.363281 47.542969 C 49.777344 47.09375 50.230469 46.675781 50.664062 46.242188 C 50.664062 46.242188 52.042969 44.964844 52.042969 44.964844 C 52.105469 44.898438 52.121094 44.890625 52.191406 44.835938 C 52.191406 44.835938 54.105469 43.210938 54.105469 43.210938 C 54.921875 42.558594 55.617188 42.070312 56.441406 41.453125 C 56.441406 41.453125 58.207031 40.265625 58.207031 40.265625 C 58.914062 39.789062 59.660156 39.371094 60.398438 38.945312 C 60.398438 38.945312 61.90625 38.128906 61.90625 38.128906 C 63.625 37.273438 65.40625 36.460938 67.257812 35.847656 C 67.429688 35.789062 67.535156 35.746094 67.710938 35.695312 C 67.867188 35.648438 67.992188 35.601562 68.148438 35.546875 C 68.296875 35.5 68.460938 35.449219 68.59375 35.414062 C 68.59375 35.414062 69.976562 35.027344 69.976562 35.027344 C 70.617188 34.871094 71.25 34.703125 71.898438 34.597656 C 72.21875 34.546875 72.5625 34.480469 72.886719 34.425781 C 74.1875 34.207031 75.707031 34.066406 77.203125 34.066406 C 80.253906 34.066406 82.535156 34.558594 85.007812 35.539062 C 85.785156 35.847656 87.285156 36.574219 87.75 37.421875 C 87.882812 37.660156 87.964844 37.921875 87.96875 38.175781 C 87.96875 38.175781 87.96875 38.238281 87.96875 38.238281 C 87.960938 38.570312 87.828125 38.882812 87.511719 39.117188 C 86.878906 39.589844 85.921875 39.539062 85.292969 39.066406 C 85.105469 38.925781 84.941406 38.765625 84.8125 38.5625 C 84.742188 38.457031 84.695312 38.363281 84.640625 38.230469 C 84.5 37.882812 84.441406 37.371094 84.53125 36.972656 C 84.53125 36.972656 83.769531 36.675781 83.769531 36.675781 C 81.808594 35.941406 79.617188 35.582031 77.433594 35.582031 C 77.089844 35.582031 76.089844 35.582031 75.804688 35.625 C 75.703125 35.640625 75.636719 35.632812 75.535156 35.632812 C 75.410156 35.636719 75.410156 35.65625 75.285156 35.660156 C 74.550781 35.683594 73.523438 35.847656 72.8125 35.964844 C 72.171875 36.074219 71.554688 36.203125 70.941406 36.347656 C 69.773438 36.621094 68.609375 36.96875 67.484375 37.363281 C 65.875 37.925781 64.296875 38.617188 62.792969 39.367188 C 62.792969 39.367188 62.046875 39.757812 62.046875 39.757812 C 61.929688 39.828125 61.804688 39.886719 61.6875 39.953125 C 61.625 39.988281 61.570312 40.011719 61.503906 40.046875 C 61.503906 40.046875 60.972656 40.351562 60.972656 40.351562 C 60.84375 40.421875 60.742188 40.480469 60.621094 40.554688 C 59.691406 41.113281 58.773438 41.675781 57.878906 42.285156 C 57.8125 42.328125 57.78125 42.359375 57.71875 42.402344 C 57.65625 42.441406 57.609375 42.472656 57.550781 42.511719 C 57.550781 42.511719 56.886719 42.988281 56.886719 42.988281 C 55.914062 43.671875 55.003906 44.4375 54.078125 45.183594 C 53.980469 45.261719 53.882812 45.363281 53.78125 45.441406 C 53.78125 45.441406 52.601562 46.484375 52.601562 46.484375 C 52.339844 46.6875 51.980469 47.117188 51.730469 47.308594 C 51.554688 47.445312 50.78125 48.226562 50.613281 48.414062 C 50.613281 48.414062 49.792969 49.285156 49.792969 49.285156 C 49.730469 49.347656 49.722656 49.375 49.667969 49.4375 C 49.617188 49.492188 49.578125 49.523438 49.527344 49.578125 C 49.527344 49.578125 47.902344 51.582031 47.902344 51.582031 C 47.902344 51.582031 67.679688 51.582031 67.679688 51.582031 C 67.679688 51.582031 89.511719 111.902344 89.511719 111.902344 C 89.511719 111.902344 100.402344 82.894531 100.402344 82.894531 C 99.726562 83.308594 99.042969 83.707031 98.347656 84.09375 C 98.347656 84.09375 94.253906 86.140625 94.253906 86.140625 C 94.253906 86.140625 91.851562 87.148438 91.851562 87.148438 C 91.679688 87.214844 91.53125 87.277344 91.378906 87.332031 C 91.378906 87.332031 88.351562 88.402344 88.351562 88.402344 C 88.078125 88.492188 87.804688 88.582031 87.53125 88.671875 C 86.675781 91.496094 85.847656 94.347656 85.046875 97.230469 C 85.046875 97.230469 83.417969 93.414062 83.417969 93.414062 C 83.679688 92.460938 84.027344 91.148438 84.457031 89.566406 C 84.351562 89.59375 84.246094 89.621094 84.140625 89.648438 C 83.941406 89.695312 83.25 89.910156 83.066406 89.914062 C 82.984375 89.738281 82.929688 89.390625 82.878906 89.191406 C 82.835938 89.007812 82.714844 88.621094 82.714844 88.449219 C 82.894531 88.445312 83.585938 88.230469 83.785156 88.179688 C 84.140625 88.09375 84.523438 87.992188 84.917969 87.882812 C 89.648438 70.765625 102.164062 30.0625 120.199219 37.671875 C 124.273438 40.640625 125.796875 44.792969 124.761719 50.128906 C 124.761719 50.128906 124.601562 50.09375 124.277344 50.019531 C 124.722656 42.324219 122.066406 38.417969 116.3125 38.308594 C 109.503906 38.546875 102.539062 47.605469 95.40625 65.480469 C 92.746094 72.53125 90.308594 79.644531 88.066406 86.910156 C 88.066406 86.910156 89.875 86.285156 89.875 86.285156 C 90.203125 86.171875 90.519531 86.039062 90.828125 85.925781 C 91.464844 85.691406 92.09375 85.410156 92.71875 85.164062 C 92.886719 85.097656 93.03125 85.027344 93.195312 84.957031 C 93.34375 84.898438 93.503906 84.828125 93.65625 84.757812 C 93.800781 84.691406 93.953125 84.617188 94.105469 84.554688 C 94.105469 84.554688 98.902344 82.046875 98.902344 82.046875 C 99.183594 81.875 99.441406 81.714844 99.71875 81.550781 C 100.25 81.230469 100.773438 80.882812 101.289062 80.535156 C 101.289062 80.535156 112.15625 51.582031 112.15625 51.582031 C 112.15625 51.582031 132.890625 51.582031 132.890625 51.582031 C 132.890625 51.582031 132.890625 52.851562 132.890625 52.851562 Z M 59.445312 120.980469 C 59.855469 122.164062 60.433594 123.179688 61.167969 124.042969 C 62.117188 125.140625 63.183594 125.929688 64.371094 126.410156 C 64.859375 126.605469 65.402344 126.773438 66.003906 126.90625 C 66.789062 126.199219 67.539062 125.457031 68.261719 124.679688 C 68.261719 124.679688 68.046875 124.90625 68.046875 124.90625 C 66.347656 123.867188 63.824219 122.769531 59.523438 121.015625 C 59.496094 121.003906 59.472656 120.992188 59.445312 120.980469 Z M 64.023438 128.585938 C 64.023438 128.585938 45.792969 128.585938 45.792969 128.585938 C 45.792969 128.585938 45.792969 127.316406 45.792969 127.316406 C 47.703125 127.199219 49.253906 126.890625 50.457031 126.410156 C 51.648438 125.929688 52.714844 125.140625 53.660156 124.042969 C 54.695312 122.832031 55.417969 121.292969 55.796875 119.445312 C 55.796875 119.445312 55.800781 119.429688 55.800781 119.429688 C 50.296875 117.398438 44.59375 116.660156 38.691406 117.21875 C 22.738281 120.203125 28.625 142.777344 53.886719 134.371094 C 57.648438 132.878906 61.03125 130.949219 64.023438 128.585938 Z M 56.382812 89.492188 C 56.382812 89.492188 56.382812 69.285156 56.382812 69.285156 C 56.382812 67.550781 56.332031 65.917969 56.226562 64.359375 C 56.054688 61.585938 55.675781 59.546875 55.074219 58.277344 C 54.230469 56.507812 53.078125 55.199219 51.613281 54.351562 C 50.359375 53.628906 48.753906 53.15625 46.800781 52.941406 C 46.800781 52.941406 46.03125 53.890625 46.03125 53.890625 C 45.949219 54 45.875 54.101562 45.796875 54.210938 C 45.796875 54.210938 45.132812 55.214844 45.132812 55.214844 C 45.058594 55.335938 45.011719 55.457031 44.941406 55.578125 C 44.675781 56.011719 44.242188 56.957031 44 57.441406 C 44 57.441406 43.300781 58.964844 43.300781 58.964844 C 42.957031 59.757812 42.628906 60.542969 42.328125 61.355469 C 41.910156 62.480469 41.566406 63.59375 41.25 64.75 C 41.167969 65.046875 41.101562 65.339844 41.03125 65.644531 C 40.734375 66.964844 40.566406 68.167969 40.460938 69.519531 C 40.34375 71.019531 40.429688 72.683594 40.667969 74.117188 C 40.84375 75.175781 41.214844 76.609375 41.65625 77.597656 C 41.65625 77.597656 42.003906 78.390625 42.003906 78.390625 C 42.285156 78.964844 42.585938 79.515625 42.910156 80.0625 C 43.355469 80.808594 44.132812 81.882812 44.738281 82.53125 C 44.773438 82.566406 44.792969 82.582031 44.828125 82.617188 C 44.898438 82.707031 44.921875 82.738281 45.003906 82.820312 C 45.082031 82.898438 45.101562 82.925781 45.167969 83.007812 C 45.386719 83.269531 45.660156 83.503906 45.902344 83.742188 C 46.035156 83.875 46.136719 83.996094 46.289062 84.113281 C 46.289062 84.113281 46.984375 84.730469 46.984375 84.730469 C 47.027344 84.761719 47.039062 84.78125 47.078125 84.816406 C 47.339844 85.050781 47.628906 85.265625 47.921875 85.460938 C 48.074219 85.5625 48.214844 85.648438 48.367188 85.75 C 48.367188 85.75 48.8125 86.039062 48.8125 86.039062 C 49.90625 86.703125 51.011719 87.328125 52.160156 87.894531 C 52.160156 87.894531 53.191406 88.355469 53.191406 88.355469 C 54.210938 88.792969 55.292969 89.175781 56.382812 89.492188 Z M 131.054688 102.347656 C 131.054688 103.707031 132.789062 104.554688 134.027344 103.726562 C 134.300781 103.546875 134.566406 103.269531 134.71875 102.980469 C 134.925781 103.078125 135.195312 103.144531 135.417969 103.214844 C 136.542969 103.589844 137.679688 104.042969 138.738281 104.570312 C 139.765625 105.085938 140.753906 105.636719 141.710938 106.273438 C 142.171875 106.582031 142.625 106.90625 143.054688 107.257812 C 143.054688 107.257812 143.683594 107.785156 143.683594 107.785156 C 143.742188 107.839844 143.765625 107.84375 143.824219 107.898438 C 144.183594 108.25 144.566406 108.574219 144.898438 108.949219 C 144.9375 108.992188 144.96875 109.023438 145.011719 109.0625 C 145.054688 109.105469 145.085938 109.132812 145.125 109.175781 C 145.179688 109.234375 145.183594 109.257812 145.238281 109.316406 C 146.160156 110.308594 146.925781 111.445312 147.53125 112.65625 C 147.636719 112.871094 147.738281 113.066406 147.832031 113.289062 C 147.929688 113.511719 148.011719 113.71875 148.105469 113.953125 C 148.726562 115.496094 148.996094 117.191406 148.996094 118.976562 C 148.996094 122.296875 147.75 125.40625 146.050781 127.957031 C 145.984375 128.054688 145.933594 128.136719 145.867188 128.226562 C 145.867188 128.226562 145.5 128.746094 145.5 128.746094 C 145.253906 129.082031 144.996094 129.421875 144.71875 129.734375 C 144.578125 129.894531 144.453125 130.046875 144.316406 130.214844 C 143.992188 130.597656 143.382812 131.199219 143.015625 131.566406 C 142.738281 131.84375 142.296875 132.261719 141.984375 132.503906 C 141.984375 132.503906 141.125 133.214844 141.125 133.214844 C 140.496094 133.707031 139.746094 134.285156 139.066406 134.691406 C 138.878906 134.804688 138.714844 134.917969 138.523438 135.035156 C 137.972656 135.375 137.398438 135.679688 136.839844 136.007812 C 136.273438 136.335938 135.664062 136.605469 135.066406 136.882812 C 134.25 137.265625 133.410156 137.617188 132.554688 137.914062 C 129.570312 138.949219 127.292969 139.550781 124.011719 139.984375 C 123.511719 140.046875 122.953125 140.117188 122.433594 140.171875 C 122.160156 140.203125 121.871094 140.214844 121.621094 140.246094 C 121.621094 140.246094 120.390625 140.328125 120.390625 140.328125 C 120.140625 140.328125 119.808594 140.378906 119.558594 140.378906 C 119.417969 140.382812 119.242188 140.367188 119.105469 140.382812 C 119.105469 140.382812 114.808594 140.351562 114.808594 140.351562 C 114.808594 140.351562 113.113281 140.253906 113.113281 140.253906 C 112.300781 140.191406 111.5 140.132812 110.683594 140.03125 C 109.617188 139.898438 108.582031 139.769531 107.570312 139.601562 C 104.570312 139.109375 101.757812 138.484375 98.910156 137.652344 C 97.542969 137.253906 96.210938 136.839844 94.867188 136.390625 C 93.882812 136.0625 92.914062 135.699219 91.941406 135.347656 C 91.941406 135.347656 90.953125 134.972656 90.953125 134.972656 C 89.898438 134.550781 88.84375 134.152344 87.808594 133.691406 C 87.597656 133.597656 87.402344 133.511719 87.191406 133.425781 C 87.191406 133.425781 85.667969 132.75 85.667969 132.75 C 85.15625 132.519531 84.640625 132.296875 84.144531 132.046875 C 84.144531 132.046875 79.421875 129.699219 79.421875 129.699219 C 78.742188 129.359375 78.078125 128.988281 77.414062 128.621094 C 77.355469 128.589844 77.324219 128.578125 77.265625 128.542969 C 77.265625 128.542969 75.984375 127.828125 75.984375 127.828125 C 75.503906 127.585938 74.769531 127.144531 74.296875 126.863281 C 74.039062 126.707031 72.144531 125.566406 72.050781 125.546875 C 72.050781 125.546875 71.378906 126.644531 71.378906 126.644531 C 71.335938 126.714844 71.296875 126.75 71.292969 126.835938 C 71.871094 127.140625 72.472656 127.53125 73.035156 127.871094 C 73.035156 127.871094 73.625 128.214844 73.625 128.214844 C 74.03125 128.4375 74.394531 128.667969 74.796875 128.890625 C 75.398438 129.226562 75.96875 129.574219 76.582031 129.882812 C 76.691406 129.941406 76.765625 129.988281 76.875 130.042969 C 76.875 130.042969 79.300781 131.332031 79.300781 131.332031 C 79.414062 131.390625 79.5 131.441406 79.613281 131.5 C 80.425781 131.9375 81.265625 132.324219 82.089844 132.738281 C 82.089844 132.738281 83.035156 133.183594 83.035156 133.183594 C 83.148438 133.242188 83.238281 133.292969 83.355469 133.34375 C 83.484375 133.394531 83.550781 133.429688 83.664062 133.488281 C 83.664062 133.488281 85.257812 134.21875 85.257812 134.21875 C 85.488281 134.320312 85.683594 134.402344 85.90625 134.507812 C 87.433594 135.222656 89.617188 136.070312 91.195312 136.675781 C 92.3125 137.105469 93.449219 137.507812 94.601562 137.894531 C 96.019531 138.367188 97.429688 138.792969 98.871094 139.207031 C 99.125 139.28125 99.347656 139.335938 99.601562 139.410156 C 100.085938 139.550781 100.585938 139.671875 101.066406 139.792969 C 103.175781 140.320312 106.675781 141.074219 108.839844 141.316406 C 109.101562 141.34375 109.363281 141.386719 109.644531 141.421875 C 110.464844 141.53125 111.339844 141.648438 112.179688 141.695312 C 112.441406 141.707031 112.773438 141.761719 113.039062 141.769531 C 113.335938 141.777344 113.613281 141.8125 113.921875 141.820312 C 113.921875 141.820312 115.222656 141.894531 115.222656 141.894531 C 115.222656 141.894531 115.710938 141.894531 115.710938 141.894531 C 115.710938 141.894531 115.714844 141.894531 115.714844 141.894531 C 115.714844 141.894531 119.371094 141.894531 119.371094 141.894531 C 119.371094 141.894531 120.980469 141.800781 120.980469 141.800781 C 121.394531 141.746094 121.773438 141.761719 122.179688 141.710938 C 122.179688 141.710938 123.703125 141.542969 123.703125 141.542969 C 126.09375 141.269531 128.511719 140.761719 130.785156 140.085938 C 131.660156 139.824219 132.515625 139.542969 133.339844 139.226562 C 134.269531 138.871094 135.160156 138.535156 136.023438 138.097656 C 136.136719 138.039062 136.199219 138.011719 136.320312 137.960938 C 137.261719 137.558594 139.265625 136.371094 140.152344 135.78125 C 140.832031 135.328125 141.492188 134.847656 142.128906 134.34375 C 142.4375 134.097656 142.765625 133.84375 143.050781 133.574219 C 143.355469 133.292969 143.65625 133.046875 143.949219 132.753906 C 144.238281 132.464844 144.507812 132.195312 144.796875 131.90625 C 144.949219 131.753906 145.0625 131.617188 145.214844 131.464844 C 145.292969 131.386719 145.332031 131.324219 145.414062 131.238281 C 145.464844 131.1875 145.464844 131.175781 145.507812 131.125 C 145.546875 131.078125 145.574219 131.058594 145.617188 131.011719 C 145.617188 131.011719 146.378906 130.078125 146.378906 130.078125 C 146.917969 129.410156 147.519531 128.523438 147.933594 127.792969 C 147.933594 127.792969 148.246094 127.246094 148.246094 127.246094 C 148.667969 126.496094 149.179688 125.421875 149.449219 124.609375 C 149.449219 124.609375 149.867188 123.332031 149.867188 123.332031 C 149.933594 123.097656 149.980469 122.894531 150.042969 122.648438 C 150.257812 121.800781 150.394531 120.9375 150.460938 120.0625 C 150.628906 117.894531 150.324219 115.710938 149.613281 113.683594 C 149.449219 113.210938 149.253906 112.761719 149.039062 112.3125 C 148.863281 111.945312 148.691406 111.582031 148.480469 111.226562 C 148.445312 111.164062 148.414062 111.117188 148.375 111.054688 C 148.230469 110.808594 148.109375 110.601562 147.949219 110.367188 C 147.949219 110.367188 146.386719 108.34375 146.386719 108.34375 C 146.332031 108.28125 146.324219 108.253906 146.261719 108.191406 C 146.261719 108.191406 145.996094 107.902344 145.996094 107.902344 C 145.832031 107.710938 145.621094 107.527344 145.441406 107.34375 C 145.027344 106.929688 144.433594 106.417969 143.96875 106.0625 C 143.128906 105.421875 142.28125 104.792969 141.363281 104.269531 C 141.363281 104.269531 140.65625 103.863281 140.65625 103.863281 C 139.6875 103.300781 137.921875 102.507812 136.859375 102.128906 C 136.859375 102.128906 135.644531 101.699219 135.644531 101.699219 C 135.496094 101.648438 135.371094 101.613281 135.226562 101.5625 C 135.226562 101.5625 135.125 101.511719 135.125 101.511719 C 135.121094 101.511719 135.113281 101.507812 135.109375 101.503906 C 135.101562 101.5 135.097656 101.496094 135.09375 101.496094 C 135.085938 101.492188 135.039062 101.472656 135.039062 101.472656 C 134.964844 101.449219 134.875 101.433594 134.816406 101.417969 C 134.316406 101.292969 133.691406 101.125 133.082031 101.085938 C 133.082031 101.085938 132.5625 101.085938 132.5625 101.085938 C 132.203125 101.113281 131.863281 101.207031 131.574219 101.402344 C 131.324219 101.574219 131.054688 101.933594 131.054688 102.347656 Z M 131.054688 102.347656 "/>
<path style=" stroke:none;fill-rule:evenodd;fill:rgb(70.980394%,59.607846%,58.823532%);fill-opacity:1;" d="M 90.058594 1.558594 C 138.9375 1.558594 178.5625 41.183594 178.5625 90.058594 C 178.5625 138.9375 138.9375 178.5625 90.058594 178.5625 C 41.183594 178.5625 1.558594 138.9375 1.558594 90.058594 C 1.558594 41.183594 41.183594 1.558594 90.058594 1.558594 Z M 90.058594 0 C 139.796875 0 180.121094 40.320312 180.121094 90.058594 C 180.121094 139.796875 139.796875 180.121094 90.058594 180.121094 C 40.320312 180.121094 0 139.796875 0 90.058594 C 0 40.320312 40.320312 0 90.058594 0 Z M 90.058594 0 "/>
<path style=" stroke:none;fill-rule:evenodd;fill:rgb(70.980394%,59.607846%,58.823532%);fill-opacity:1;" d="M 146.367188 31.019531 C 161.941406 45.878906 171.644531 66.835938 171.644531 90.058594 C 171.644531 115.570312 159.9375 138.339844 141.601562 153.300781 L 142.535156 154.394531 C 161.179688 139.167969 173.082031 116.003906 173.082031 90.058594 C 173.082031 66.410156 163.195312 45.070312 147.328125 29.949219 Z M 32.980469 29.777344 C 17.003906 44.90625 7.035156 66.320312 7.035156 90.058594 C 7.035156 116.28125 19.195312 139.660156 38.179688 154.875 L 39.054688 153.734375 C 20.414062 138.78125 8.472656 115.816406 8.472656 90.058594 C 8.472656 66.765625 18.238281 45.753906 33.894531 30.886719 Z M 32.980469 29.777344 "/>
<path style=" stroke:none;fill-rule:nonzero;fill:rgb(70.980394%,59.607846%,58.823532%);fill-opacity:1;" d="M 41.820312 30.914062 L 37.722656 25.152344 L 38.398438 24.671875 L 44.082031 27.1875 L 43.71875 27.445312 L 43.171875 21.277344 L 43.847656 20.796875 L 47.957031 26.554688 L 47.164062 27.117188 L 43.941406 22.601562 L 44.132812 22.46875 L 44.578125 27.902344 L 44.195312 28.171875 L 39.191406 25.980469 L 39.398438 25.832031 L 42.613281 30.355469 Z M 50.484375 24.960938 L 46.957031 18.832031 L 47.835938 18.328125 L 51.359375 24.457031 Z M 53.953125 22.976562 L 50.730469 16.683594 L 53.1875 15.425781 C 53.738281 15.144531 54.253906 14.992188 54.730469 14.964844 C 55.210938 14.9375 55.636719 15.039062 56.015625 15.261719 C 56.394531 15.480469 56.703125 15.820312 56.933594 16.277344 C 57.167969 16.730469 57.265625 17.175781 57.222656 17.609375 C 57.179688 18.046875 57.007812 18.449219 56.707031 18.824219 C 56.40625 19.195312 55.980469 19.523438 55.429688 19.804688 L 53.46875 20.808594 L 53.660156 20.1875 L 54.855469 22.519531 Z M 58.164062 20.824219 L 55.394531 19.359375 L 56.355469 18.867188 L 59.144531 20.320312 Z M 53.707031 20.277344 L 53.078125 20.046875 L 55.011719 19.054688 C 55.585938 18.761719 55.957031 18.414062 56.128906 18.011719 C 56.296875 17.613281 56.265625 17.1875 56.035156 16.738281 C 55.804688 16.289062 55.480469 16.015625 55.054688 15.921875 C 54.632812 15.828125 54.136719 15.929688 53.558594 16.222656 L 51.625 17.214844 L 51.800781 16.554688 Z M 60.386719 19.882812 L 60.769531 12.132812 L 61.703125 11.765625 L 67.285156 17.164062 L 66.296875 17.554688 L 61.25 12.550781 L 61.628906 12.402344 L 61.355469 19.503906 Z M 61.007812 17.738281 L 60.964844 16.886719 L 64.667969 15.425781 L 65.234375 16.070312 Z M 69.164062 16.714844 L 67.574219 9.824219 L 68.382812 9.640625 L 74.246094 14.246094 L 73.824219 14.34375 L 72.515625 8.683594 L 73.5 8.457031 L 75.089844 15.347656 L 74.285156 15.535156 L 68.417969 10.925781 L 68.84375 10.828125 L 70.148438 16.488281 Z M 78.03125 14.820312 L 77.140625 7.804688 L 80.097656 7.429688 C 80.84375 7.335938 81.523438 7.398438 82.132812 7.617188 C 82.742188 7.839844 83.238281 8.195312 83.621094 8.683594 C 84.007812 9.167969 84.242188 9.761719 84.332031 10.457031 C 84.417969 11.152344 84.339844 11.78125 84.089844 12.351562 C 83.835938 12.917969 83.445312 13.386719 82.910156 13.753906 C 82.378906 14.117188 81.738281 14.351562 80.988281 14.445312 Z M 78.921875 13.820312 L 80.816406 13.582031 C 81.398438 13.507812 81.886719 13.332031 82.285156 13.058594 C 82.679688 12.785156 82.96875 12.433594 83.152344 12.003906 C 83.335938 11.578125 83.394531 11.105469 83.328125 10.582031 C 83.261719 10.054688 83.085938 9.609375 82.800781 9.246094 C 82.519531 8.878906 82.148438 8.613281 81.699219 8.449219 C 81.246094 8.28125 80.730469 8.234375 80.148438 8.308594 L 78.253906 8.550781 Z M 86.027344 13.988281 L 89.046875 6.839844 L 90.046875 6.816406 L 93.4375 13.804688 L 92.378906 13.828125 L 89.355469 7.398438 L 89.757812 7.386719 L 87.066406 13.964844 Z M 87.34375 12.1875 L 87.597656 11.375 L 91.574219 11.273438 L 91.890625 12.074219 Z M 98.058594 14.308594 L 98.949219 7.292969 L 102.097656 7.695312 C 102.90625 7.796875 103.507812 8.035156 103.898438 8.417969 C 104.292969 8.796875 104.453125 9.265625 104.382812 9.828125 C 104.332031 10.207031 104.207031 10.519531 104.003906 10.757812 C 103.800781 10.996094 103.546875 11.167969 103.242188 11.269531 C 102.9375 11.375 102.617188 11.40625 102.28125 11.363281 L 102.5 11.085938 C 102.902344 11.136719 103.246094 11.25 103.539062 11.429688 C 103.828125 11.609375 104.042969 11.847656 104.191406 12.140625 C 104.335938 12.433594 104.382812 12.78125 104.332031 13.179688 C 104.257812 13.78125 103.972656 14.21875 103.480469 14.492188 C 102.984375 14.765625 102.296875 14.847656 101.40625 14.734375 Z M 99.164062 13.625 L 101.46875 13.917969 C 102.023438 13.988281 102.460938 13.949219 102.777344 13.796875 C 103.09375 13.648438 103.28125 13.375 103.332031 12.972656 C 103.382812 12.566406 103.273438 12.25 103.003906 12.023438 C 102.734375 11.800781 102.320312 11.652344 101.765625 11.582031 L 99.371094 11.277344 L 99.472656 10.464844 L 101.617188 10.738281 C 102.125 10.804688 102.53125 10.757812 102.835938 10.609375 C 103.140625 10.457031 103.316406 10.195312 103.363281 9.820312 C 103.414062 9.445312 103.308594 9.148438 103.050781 8.925781 C 102.792969 8.703125 102.410156 8.558594 101.90625 8.492188 L 99.851562 8.234375 Z M 108.257812 11.964844 L 111.800781 12.785156 L 111.605469 13.621094 L 108.0625 12.800781 Z M 107.636719 15.046875 L 111.65625 15.976562 L 111.457031 16.832031 L 106.457031 15.675781 L 108.046875 8.785156 L 112.910156 9.910156 L 112.710938 10.765625 L 108.832031 9.871094 Z M 112.800781 17.34375 L 118.101562 11.671875 L 119.050781 11.992188 L 119.828125 19.71875 L 118.820312 19.378906 L 118.199219 12.300781 L 118.582031 12.429688 L 113.789062 17.675781 Z M 114.660156 16.105469 L 115.179688 15.429688 L 118.949219 16.703125 L 118.96875 17.5625 Z M 123.980469 21.949219 C 123.152344 21.527344 122.625 20.957031 122.390625 20.242188 C 122.160156 19.523438 122.277344 18.710938 122.746094 17.800781 L 124.578125 14.21875 L 125.476562 14.679688 L 123.664062 18.222656 C 123.304688 18.925781 123.195312 19.515625 123.339844 20 C 123.480469 20.480469 123.835938 20.867188 124.398438 21.152344 C 124.96875 21.445312 125.492188 21.507812 125.964844 21.34375 C 126.4375 21.175781 126.855469 20.746094 127.214844 20.042969 L 129.03125 16.5 L 129.902344 16.945312 L 128.070312 20.527344 C 127.601562 21.4375 127.011719 22.007812 126.300781 22.242188 C 125.585938 22.472656 124.8125 22.375 123.980469 21.949219 Z M 130.296875 25.390625 L 133.640625 20.175781 L 131.597656 18.867188 L 132.074219 18.128906 L 136.996094 21.285156 L 136.523438 22.023438 L 134.480469 20.714844 L 131.140625 25.929688 Z M 136.074219 29.367188 L 137.75 27.238281 L 137.542969 27.875 L 138.238281 22.070312 L 139.085938 22.738281 L 138.492188 27.632812 L 138.03125 27.269531 L 142.652344 25.542969 L 143.441406 26.160156 L 137.972656 28.210938 L 138.535156 27.855469 L 136.863281 29.984375 Z M 136.074219 29.367188 "/>
<path style=" stroke:none;fill-rule:nonzero;fill:rgb(70.980394%,59.607846%,58.823532%);fill-opacity:1;" d="M 43.625 158.804688 L 47.460938 152.863281 L 48.15625 153.3125 L 48.933594 160.730469 L 48.570312 160.492188 L 51.722656 155.613281 L 52.570312 156.160156 L 48.734375 162.101562 L 48.039062 161.652344 L 47.257812 154.234375 L 47.625 154.472656 L 44.472656 159.351562 Z M 50.917969 163.40625 L 56.738281 158.265625 L 57.648438 158.675781 L 57.683594 166.441406 L 56.714844 166.007812 L 56.773438 158.902344 L 57.140625 159.066406 L 51.867188 163.832031 Z M 52.886719 162.351562 L 53.464844 161.726562 L 57.097656 163.355469 L 57.035156 164.214844 Z M 60.03125 167.386719 L 62.652344 160.816406 L 63.589844 161.191406 L 60.96875 167.757812 Z M 64.351562 169 L 66.253906 162.1875 L 67.226562 162.460938 L 65.558594 168.425781 L 69.246094 169.453125 L 69.011719 170.300781 Z M 73.503906 171.4375 C 72.976562 171.339844 72.484375 171.164062 72.027344 170.914062 C 71.574219 170.664062 71.234375 170.382812 71 170.074219 L 71.511719 169.367188 C 71.734375 169.648438 72.035156 169.902344 72.417969 170.128906 C 72.800781 170.355469 73.214844 170.511719 73.660156 170.589844 C 74.0625 170.664062 74.398438 170.679688 74.667969 170.632812 C 74.9375 170.585938 75.144531 170.492188 75.296875 170.351562 C 75.445312 170.210938 75.539062 170.039062 75.574219 169.832031 C 75.617188 169.59375 75.574219 169.386719 75.445312 169.214844 C 75.316406 169.039062 75.136719 168.882812 74.90625 168.75 C 74.671875 168.613281 74.414062 168.488281 74.128906 168.367188 C 73.84375 168.246094 73.554688 168.113281 73.269531 167.96875 C 72.984375 167.824219 72.730469 167.660156 72.507812 167.472656 C 72.285156 167.289062 72.121094 167.066406 72.011719 166.804688 C 71.902344 166.539062 71.878906 166.222656 71.949219 165.851562 C 72.015625 165.496094 72.167969 165.183594 72.414062 164.914062 C 72.65625 164.648438 72.992188 164.460938 73.417969 164.351562 C 73.847656 164.238281 74.367188 164.242188 74.976562 164.351562 C 75.378906 164.425781 75.769531 164.550781 76.148438 164.730469 C 76.527344 164.910156 76.84375 165.125 77.097656 165.375 L 76.625 166.113281 C 76.363281 165.859375 76.074219 165.65625 75.761719 165.507812 C 75.445312 165.355469 75.132812 165.253906 74.820312 165.195312 C 74.429688 165.125 74.097656 165.117188 73.828125 165.167969 C 73.558594 165.222656 73.351562 165.320312 73.207031 165.464844 C 73.058594 165.609375 72.96875 165.785156 72.929688 165.992188 C 72.886719 166.234375 72.925781 166.445312 73.054688 166.621094 C 73.183594 166.792969 73.367188 166.945312 73.597656 167.078125 C 73.832031 167.210938 74.089844 167.335938 74.375 167.460938 C 74.660156 167.585938 74.945312 167.71875 75.230469 167.859375 C 75.519531 168 75.773438 168.164062 75.996094 168.347656 C 76.21875 168.53125 76.382812 168.753906 76.496094 169.015625 C 76.605469 169.273438 76.625 169.585938 76.558594 169.949219 C 76.496094 170.300781 76.339844 170.609375 76.09375 170.878906 C 75.84375 171.144531 75.503906 171.332031 75.070312 171.441406 C 74.636719 171.546875 74.113281 171.546875 73.503906 171.4375 Z M 83.6875 172.828125 C 83.210938 172.789062 82.796875 172.679688 82.4375 172.5 C 82.078125 172.316406 81.804688 172.078125 81.609375 171.785156 C 81.417969 171.496094 81.332031 171.167969 81.359375 170.804688 C 81.382812 170.488281 81.476562 170.207031 81.636719 169.957031 C 81.800781 169.703125 82.042969 169.46875 82.371094 169.246094 C 82.699219 169.023438 83.125 168.800781 83.648438 168.578125 C 84.074219 168.394531 84.410156 168.230469 84.652344 168.085938 C 84.898438 167.945312 85.074219 167.804688 85.179688 167.667969 C 85.289062 167.53125 85.351562 167.378906 85.363281 167.210938 C 85.378906 166.980469 85.3125 166.789062 85.164062 166.632812 C 85.015625 166.476562 84.789062 166.386719 84.484375 166.363281 C 84.167969 166.339844 83.917969 166.398438 83.726562 166.542969 C 83.535156 166.6875 83.433594 166.886719 83.414062 167.140625 C 83.402344 167.269531 83.414062 167.394531 83.449219 167.515625 C 83.484375 167.636719 83.554688 167.773438 83.660156 167.925781 C 83.769531 168.078125 83.925781 168.277344 84.128906 168.515625 L 87.574219 172.503906 L 86.980469 173.109375 L 83.320312 168.867188 C 83.105469 168.613281 82.9375 168.390625 82.816406 168.195312 C 82.695312 168 82.613281 167.8125 82.566406 167.632812 C 82.519531 167.457031 82.5 167.273438 82.515625 167.09375 C 82.539062 166.777344 82.640625 166.507812 82.816406 166.28125 C 82.992188 166.054688 83.226562 165.886719 83.523438 165.777344 C 83.816406 165.667969 84.15625 165.628906 84.539062 165.65625 C 84.894531 165.683594 85.199219 165.765625 85.453125 165.902344 C 85.707031 166.042969 85.894531 166.226562 86.023438 166.453125 C 86.152344 166.683594 86.203125 166.953125 86.179688 167.261719 C 86.160156 167.53125 86.074219 167.773438 85.925781 167.992188 C 85.777344 168.210938 85.550781 168.417969 85.246094 168.609375 C 84.941406 168.800781 84.535156 169.003906 84.023438 169.214844 C 83.605469 169.390625 83.277344 169.5625 83.035156 169.722656 C 82.792969 169.882812 82.617188 170.046875 82.503906 170.214844 C 82.394531 170.382812 82.332031 170.570312 82.316406 170.777344 C 82.296875 171 82.347656 171.199219 82.46875 171.382812 C 82.585938 171.5625 82.757812 171.707031 82.992188 171.820312 C 83.222656 171.933594 83.496094 172 83.8125 172.027344 C 84.261719 172.058594 84.675781 171.992188 85.050781 171.824219 C 85.429688 171.660156 85.753906 171.390625 86.03125 171.019531 C 86.304688 170.648438 86.519531 170.179688 86.679688 169.609375 L 87.4375 169.921875 C 87.25 170.589844 86.976562 171.144531 86.613281 171.589844 C 86.253906 172.035156 85.824219 172.363281 85.328125 172.578125 C 84.832031 172.789062 84.285156 172.871094 83.6875 172.828125 Z M 92.945312 173.011719 L 92.410156 165.960938 L 93.417969 165.886719 L 93.886719 172.058594 L 97.707031 171.769531 L 97.773438 172.644531 Z M 99.363281 172.683594 L 101.242188 165.152344 L 102.226562 164.972656 L 106.65625 171.351562 L 105.613281 171.542969 L 101.632812 165.65625 L 102.027344 165.582031 L 100.386719 172.496094 Z M 100.386719 170.699219 L 100.507812 169.855469 L 104.425781 169.140625 L 104.859375 169.882812 Z M 111.148438 170.386719 C 110.628906 170.53125 110.113281 170.59375 109.59375 170.566406 C 109.078125 170.542969 108.644531 170.441406 108.300781 170.265625 L 108.449219 169.40625 C 108.773438 169.558594 109.15625 169.652344 109.597656 169.691406 C 110.042969 169.726562 110.480469 169.683594 110.917969 169.5625 C 111.3125 169.449219 111.621094 169.3125 111.839844 169.152344 C 112.0625 168.992188 112.207031 168.816406 112.28125 168.625 C 112.351562 168.433594 112.359375 168.238281 112.304688 168.039062 C 112.238281 167.804688 112.109375 167.636719 111.917969 167.539062 C 111.722656 167.4375 111.492188 167.378906 111.226562 167.359375 C 110.957031 167.339844 110.667969 167.339844 110.359375 167.355469 C 110.050781 167.375 109.734375 167.378906 109.414062 167.375 C 109.097656 167.371094 108.796875 167.335938 108.515625 167.265625 C 108.230469 167.199219 107.984375 167.070312 107.769531 166.882812 C 107.558594 166.695312 107.398438 166.417969 107.296875 166.054688 C 107.199219 165.707031 107.199219 165.355469 107.300781 165.011719 C 107.402344 164.664062 107.621094 164.347656 107.957031 164.058594 C 108.292969 163.773438 108.761719 163.546875 109.355469 163.378906 C 109.753906 163.265625 110.160156 163.207031 110.578125 163.203125 C 110.996094 163.195312 111.375 163.25 111.714844 163.367188 L 111.613281 164.234375 C 111.265625 164.121094 110.917969 164.066406 110.570312 164.070312 C 110.21875 164.074219 109.894531 164.117188 109.589844 164.203125 C 109.207031 164.3125 108.90625 164.449219 108.6875 164.617188 C 108.46875 164.78125 108.324219 164.960938 108.257812 165.15625 C 108.1875 165.351562 108.183594 165.546875 108.238281 165.75 C 108.304688 165.988281 108.4375 166.160156 108.628906 166.257812 C 108.820312 166.359375 109.050781 166.414062 109.316406 166.433594 C 109.585938 166.449219 109.875 166.449219 110.183594 166.433594 C 110.496094 166.421875 110.808594 166.414062 111.128906 166.414062 C 111.449219 166.417969 111.746094 166.453125 112.027344 166.519531 C 112.308594 166.585938 112.558594 166.714844 112.769531 166.898438 C 112.984375 167.082031 113.140625 167.355469 113.242188 167.710938 C 113.335938 168.054688 113.332031 168.402344 113.226562 168.75 C 113.121094 169.097656 112.898438 169.414062 112.558594 169.703125 C 112.214844 169.992188 111.746094 170.21875 111.148438 170.386719 Z M 118.761719 160.300781 L 119.703125 159.9375 L 122.265625 166.527344 L 121.324219 166.894531 Z M 117.539062 168.367188 L 116.597656 168.730469 L 114.035156 162.140625 L 114.976562 161.777344 Z M 120.265625 163.921875 L 116.304688 165.464844 L 115.984375 164.644531 L 119.949219 163.101562 Z M 124.570312 161.0625 L 127.816406 159.425781 L 128.203125 160.191406 L 124.957031 161.828125 Z M 126.066406 163.828125 L 129.746094 161.972656 L 130.140625 162.757812 L 125.558594 165.066406 L 122.378906 158.75 L 126.835938 156.507812 L 127.230469 157.292969 L 123.675781 159.082031 Z M 134.609375 160.136719 C 134.152344 160.425781 133.675781 160.632812 133.171875 160.757812 C 132.667969 160.882812 132.226562 160.914062 131.847656 160.84375 L 131.738281 159.976562 C 132.09375 160.03125 132.488281 160.011719 132.921875 159.917969 C 133.359375 159.824219 133.765625 159.65625 134.144531 159.414062 C 134.492188 159.191406 134.75 158.972656 134.914062 158.753906 C 135.078125 158.539062 135.167969 158.328125 135.179688 158.125 C 135.195312 157.917969 135.144531 157.730469 135.03125 157.554688 C 134.902344 157.347656 134.730469 157.226562 134.519531 157.1875 C 134.304688 157.148438 134.066406 157.15625 133.804688 157.214844 C 133.542969 157.273438 133.265625 157.355469 132.976562 157.464844 C 132.683594 157.570312 132.382812 157.667969 132.078125 157.753906 C 131.769531 157.84375 131.472656 157.894531 131.183594 157.910156 C 130.894531 157.929688 130.617188 157.878906 130.359375 157.757812 C 130.101562 157.640625 129.871094 157.421875 129.667969 157.105469 C 129.472656 156.796875 129.371094 156.464844 129.371094 156.101562 C 129.367188 155.742188 129.484375 155.375 129.722656 155.003906 C 129.960938 154.632812 130.339844 154.277344 130.863281 153.945312 C 131.210938 153.722656 131.582031 153.550781 131.980469 153.425781 C 132.378906 153.296875 132.757812 153.242188 133.117188 153.25 L 133.269531 154.113281 C 132.90625 154.105469 132.558594 154.152344 132.222656 154.257812 C 131.890625 154.363281 131.589844 154.5 131.324219 154.667969 C 130.988281 154.882812 130.742188 155.101562 130.582031 155.324219 C 130.417969 155.546875 130.332031 155.761719 130.324219 155.964844 C 130.316406 156.171875 130.367188 156.363281 130.480469 156.539062 C 130.613281 156.75 130.789062 156.875 131 156.914062 C 131.214844 156.953125 131.449219 156.941406 131.710938 156.878906 C 131.96875 156.816406 132.246094 156.734375 132.539062 156.632812 C 132.832031 156.527344 133.132812 156.429688 133.4375 156.339844 C 133.746094 156.25 134.042969 156.195312 134.332031 156.179688 C 134.621094 156.164062 134.894531 156.210938 135.148438 156.328125 C 135.40625 156.441406 135.636719 156.65625 135.835938 156.96875 C 136.027344 157.269531 136.125 157.601562 136.125 157.964844 C 136.125 158.328125 136 158.699219 135.757812 159.074219 C 135.511719 159.449219 135.128906 159.804688 134.609375 160.136719 Z M 134.609375 160.136719 "/>
</g>
</svg>
