<?xml version="1.0" encoding="UTF-8"?>
<!DOCTYPE svg PUBLIC "-//W3C//DTD SVG 1.1//EN" "http://www.w3.org/Graphics/SVG/1.1/DTD/svg11.dtd">
<!-- Creator: CorelDRAW 2020 (64-Bit) -->
<svg xmlns="http://www.w3.org/2000/svg" xml:space="preserve" width="119.742mm" height="119.742mm" version="1.1" style="shape-rendering:geometricPrecision; text-rendering:geometricPrecision; image-rendering:optimizeQuality; fill-rule:evenodd; clip-rule:evenodd"
viewBox="0 0 11974.24 11974.24"
 xmlns:xlink="http://www.w3.org/1999/xlink"
 xmlns:xodm="http://www.corel.com/coreldraw/odm/2003">
 <defs>
  <style type="text/css">
   <![CDATA[
    .fil0 {fill:#B59896}
    .fil1 {fill:#B59896;fill-rule:nonzero}
   ]]>
  </style>
 </defs>
 <g id="Capa_x0020_1">
  <metadata id="CorelCorpID_0Corel-Layer"/>
  <g id="_1472049350592">
   <path class="fil0" d="M8834.35 3513.52c-127.08,7.68 -228.96,26.87 -306.79,57.57 -76.71,31.98 -147.68,83.14 -212.92,156.06 -49.24,52.44 -85.86,111.28 -111.05,175.23 -24.04,63.96 -41.22,144.55 -50.36,241.78 -14.88,130.45 -22.9,283.95 -22.9,461.75 0,0 0,2765.51 0,2765.51 0,258.41 13.74,449 40.07,574.35 27.46,125.36 75.55,225.13 144.24,300.6 123.63,133.01 296.49,204.66 519.71,217.45 0,0 0,84.42 0,84.42 0,0 -2139.53,0 -2139.53,0 0,0 0,-84.42 0,-84.42 129.37,-7.67 233.54,-28.14 313.67,-61.39 78.98,-34.54 149.96,-85.71 212.91,-156.06 68.69,-80.59 116.76,-182.92 141.95,-305.71 26.33,-124.08 38.92,-313.39 38.92,-569.24 0,0 0,-3355.19 0,-3355.19 0,0 -448.9,1177 -448.9,1177 12.39,-9.57 25.15,-18.98 36.72,-29.29 4.18,-3.7 7.73,-6.5 11.98,-9.86 4.58,-3.63 7.65,-6.53 11.96,-9.87 0,0 23.97,-19.73 23.97,-19.73 4.38,-4.19 8.09,-6.92 12.62,-10.88 0,0 23.52,-20.17 23.52,-20.17 11.58,-10.3 24.13,-19.21 35.24,-30.26 0,0 104.19,-94.06 104.19,-94.06 12.95,-11.99 92.31,-91.11 100.79,-96.64 0,0 69.27,70.15 69.27,70.15 -8.23,12.3 -23.29,24.05 -34,34.88 -4.73,4.79 -7.04,5.9 -11.77,10.07 -7.82,6.89 -15.14,15.11 -22.69,22.66 -4.11,4.13 -7.5,8 -11.76,11.75 0,0 -154.54,139.46 -154.54,139.46 -49.23,45.77 -149.89,124.3 -199.63,161.56 -20.89,15.67 -41.91,31.11 -63.06,46.31 0,0 -1212.47,3178.93 -1212.47,3178.93 0,0 -69.82,0 -69.82,0 0,0 -1718.26,-4464.22 -1718.26,-4464.22 0,0 0,1899.1 0,1899.1 9.7,2.05 19.4,4.03 29.07,5.97 27.67,5.53 55.54,10 84.8,14.3 0,0 132.02,15.81 132.02,15.81 0,0 117.36,6.95 117.36,6.95 10.23,-0.05 13.76,1.28 21.81,1.71 15.69,0.86 34.44,0.08 50.44,-0.03 10.78,-0.04 14.51,1.5 23.44,1.77 40.93,1.23 78.96,-1.95 121.02,-1.74 30.3,0.17 63.41,-3.37 94.06,-3.37 0,11.19 1.75,14.6 1.73,25.16 -0.03,26.68 3.32,47.24 3.32,73.96 0,0 -57.11,3.38 -57.11,3.38 -11.36,0.6 -41.53,1.26 -76.48,1.67 0,0 -127.8,0 -127.8,0 -11.86,-0.27 -20.62,-0.67 -24.66,-1.21 -23.79,-3.27 -48.24,-0.3 -71.71,-2.24 -36.56,-3.03 -77.43,-4.78 -114.8,-9.52 -15.82,-2.01 -28.47,-2.4 -44.17,-4.54 -55.36,-7.54 -109.23,-16.1 -162.34,-26.43 0,0 0,1286.7 0,1286.7 0,254.45 12.22,441.9 37.72,564.83 203.53,84.37 420.95,188.22 653.11,310.21 222.02,-249.44 400.21,-548.39 534.61,-896.84 0,0 81.71,262.53 81.71,262.53 -180.88,374.52 -379.28,671.5 -601.99,904.93 0,0 0,31.16 0,31.16 0,0 -30.22,0 -30.22,0 -270.29,273.68 -576.15,456.39 -929.43,572.04 -1542.39,478.11 -2105.51,-801.02 -1415.87,-1259.1 0,0 -1.47,0.39 -1.47,0.39 373.18,-255.25 866.72,-238.91 1509.74,-3.46 16.68,-120.15 24.72,-282.16 24.72,-486.69 0,0 0,-1318.19 0,-1318.19 -34.09,-9.1 -68.13,-19.23 -102.28,-30.62 -192.16,-64.03 -371.38,-159.67 -538.14,-273.29 -5.27,-3.59 -9.62,-6.6 -14.35,-10.84 -4.49,-4.03 -9.09,-7.87 -13.63,-11.56 -4.84,-3.92 -7.87,-6.56 -12.96,-10.56 0,0 -33.13,-29.03 -33.13,-29.03 -23.56,-19.8 -47.85,-42.98 -69.65,-64.75 0,0 -77.19,-84.07 -77.19,-84.07 -2.64,-3.12 -2.35,-3.48 -5.15,-6.63 -4.28,-4.8 -6.72,-7.58 -10.86,-12.67 -44.61,-54.74 -85.37,-112.03 -120.65,-173.32 -112.89,-196.09 -164.56,-395.72 -164.56,-633.43 0,-130.15 16.59,-234.47 40.16,-351.26 13.72,-67.91 31.44,-120.86 48.88,-184.63 0,0 19.2,-59.77 19.2,-59.77 14.64,-37.83 26.66,-76.9 41.75,-114.47 38.39,-95.6 137.46,-325.11 203.13,-421.84 0,0 48.85,-68.72 48.85,-68.72 18.69,-25.05 37.51,-49.98 56.56,-74.72 0,0 0,-7.95 0,-7.95 0,0 6.17,0 6.17,0 29.84,-38.55 60.33,-76.6 91.87,-113.84 0,0 109.97,-123.56 109.97,-123.56 6.25,-7.08 13.4,-13.3 20.17,-20.12 4.34,-4.38 5.21,-6.67 9.19,-10.98 27.64,-29.89 57.77,-57.68 86.54,-86.5 0,0 91.57,-84.83 91.57,-84.83 4.28,-4.36 5.34,-4.94 9.9,-8.57 0,0 127.2,-107.99 127.2,-107.99 54.47,-43.4 100.58,-75.91 155.25,-116.91 0,0 117.46,-79.09 117.46,-79.09 47.04,-31.59 96.63,-59.46 145.74,-87.78 0,0 100.33,-54.24 100.33,-54.24 114.02,-56.82 232.6,-110.71 355.64,-151.68 11.42,-3.78 18.33,-6.63 30.2,-10.11 10.43,-3.04 18.67,-6.21 29,-9.66 9.89,-3.28 20.75,-6.59 29.56,-9.05 0,0 92.04,-25.56 92.04,-25.56 42.42,-10.5 84.49,-21.48 127.68,-28.56 21.42,-3.51 44.14,-7.9 65.76,-11.53 86.42,-14.53 187.38,-23.75 287.03,-23.75 202.7,0 354.47,32.69 518.63,97.91 51.7,20.55 151.49,68.74 182.46,124.97 8.77,15.93 14.14,33.37 14.57,50.35 0,0 0,4.14 0,4.14 -0.52,21.9 -9.54,42.77 -30.46,58.4 -42.05,31.41 -105.68,27.98 -147.4,-3.34 -12.58,-9.45 -23.52,-20.08 -32.06,-33.49 -4.58,-7.15 -7.83,-13.41 -11.37,-22.2 -9.27,-23.02 -13.34,-57.17 -7.19,-83.53 0,0 -50.63,-19.93 -50.63,-19.93 -130.48,-48.72 -276.24,-72.49 -421.43,-72.49 -22.79,0 -89.24,-0.21 -108.22,2.67 -6.61,0.99 -11.12,0.48 -17.82,0.64 -8.26,0.21 -8.38,1.47 -16.77,1.74 -48.7,1.52 -116.92,12.48 -164.37,20.39 -42.41,7.05 -83.59,15.74 -124.22,25.31 -77.7,18.32 -155.21,41.41 -229.85,67.5 -107.01,37.42 -212.09,83.4 -311.99,133.18 0,0 -49.53,26.09 -49.53,26.09 -7.77,4.75 -16.25,8.59 -23.92,13.03 -4.07,2.38 -7.71,3.77 -12.22,6.27 0,0 -35.31,20.13 -35.31,20.13 -8.52,4.65 -15.23,8.54 -23.47,13.48 -61.69,37.06 -122.78,74.69 -182.27,115.07 -4.37,2.97 -6.34,4.81 -10.7,7.78 -4.04,2.72 -7.11,4.61 -11.13,7.33 0,0 -44,31.61 -44,31.61 -64.73,45.44 -125.3,96.3 -186.72,145.92 -6.63,5.36 -13.05,11.95 -19.67,17.29 0,0 -78.5,69.34 -78.5,69.34 -17.46,13.49 -41.2,42.05 -57.82,54.73 -11.73,8.95 -63.18,60.86 -74.34,73.5 0,0 -54.64,57.92 -54.64,57.92 -4.11,4.17 -4.74,6 -8.37,10.11 -3.14,3.55 -5.91,5.74 -9.27,9.22 0,0 -107.97,133.27 -107.97,133.27 0,0 1314.68,0 1314.68,0 0,0 1451.52,4010.13 1451.52,4010.13 0,0 723.97,-1928.59 723.97,-1928.59 -44.95,27.63 -90.4,54.23 -136.61,79.92 0,0 -272.19,136.02 -272.19,136.02 0,0 -159.74,67.05 -159.74,67.05 -11.36,4.34 -21.24,8.45 -31.46,12.24 0,0 -201.13,71.01 -201.13,71.01 -18.18,6.07 -36.41,12.03 -54.68,17.91 -56.88,187.92 -111.82,377.46 -164.92,569.04 0,0 -108.48,-253.75 -108.48,-253.75 17.4,-63.42 40.57,-150.6 69.16,-255.77 -7.05,1.82 -14.12,3.58 -21.18,5.34 -13,3.23 -59.02,17.54 -71.21,17.81 -5.62,-11.69 -9.13,-34.72 -12.44,-48.04 -3.04,-12.2 -11.09,-37.84 -11.09,-49.39 11.95,-0.26 57.91,-14.53 71.22,-17.81 23.62,-5.86 49.13,-12.62 75.43,-19.94 314.39,-1137.95 1146.45,-3843.73 2345.24,-3337.76 271.02,197.23 372.2,473.26 303.51,828.02 0,0 -10.77,-2.43 -32.27,-7.28 29.53,-511.66 -147.01,-771.14 -529.53,-778.43 -452.49,15.83 -915.75,617.93 -1389.77,1806.29 -176.99,468.75 -339.02,941.5 -487.93,1424.65 0,0 120.17,-41.57 120.17,-41.57 21.92,-7.61 42.84,-16.3 63.43,-23.9 42.18,-15.59 84.18,-34.27 125.76,-50.66 11,-4.34 20.73,-9.2 31.68,-13.67 9.82,-4.04 20.41,-8.73 30.44,-13.23 9.81,-4.41 19.83,-9.52 30.04,-13.65 0,0 318.69,-166.8 318.69,-166.8 18.83,-11.35 36.04,-21.89 54.42,-32.96 35.29,-21.26 70,-44.22 104.24,-67.32 0,0 722.57,-1924.91 722.57,-1924.91 0,0 1378.27,0 1378.27,0 0,0 0,84.42 0,84.42zm-4882.35 4529.23c27.18,78.54 65.62,146.26 114.5,203.62 62.97,72.91 133.95,125.36 212.92,157.33 32.41,12.92 68.55,23.98 108.59,33.06 51.97,-47.18 102,-96.56 150.04,-148.17 0,0 -0.03,-0.03 -0.03,-0.03 0,0 -14.19,15.22 -14.19,15.22 -113.01,-69.12 -280.75,-142.05 -566.87,-258.65 -1.66,-0.8 -3.3,-1.58 -4.96,-2.38zm304.32 505.49c0,0 -1212.08,0 -1212.08,0 0,0 0,-84.42 0,-84.42 127.08,-7.67 230.11,-28.14 310.23,-60.12 79,-31.97 149.96,-84.42 212.93,-157.33 68.68,-80.59 116.76,-182.92 141.93,-305.71 0,0 0.22,-0.96 0.22,-0.96 -365.92,-135.13 -745.02,-184.15 -1137.28,-147.09 -1060.58,198.5 -669.37,1699.21 1010,1140.35 250.24,-99.37 474.92,-227.61 674.05,-384.72zm-508.06 -2598.83c0,0 0,-1343.5 0,-1343.5 0,-115.1 -3.43,-223.83 -10.29,-327.46 -11.46,-184.19 -36.65,-319.78 -76.7,-404.2 -56.09,-117.68 -132.79,-204.67 -230.11,-260.95 -83.32,-48.2 -190.13,-79.51 -319.76,-93.92 0,0 -51.22,63.21 -51.22,63.21 -5.57,7.38 -10.45,13.96 -15.53,21.43 0,0 -44.32,66.55 -44.32,66.55 -4.88,8.08 -7.89,16.12 -12.77,24.17 -17.64,28.95 -46.29,91.6 -62.49,124 0,0 -46.56,101.28 -46.56,101.28 -22.78,52.74 -44.45,104.84 -64.58,158.85 -27.85,74.78 -50.54,148.77 -71.63,225.72 -5.38,19.57 -9.88,39.25 -14.46,59.47 -19.87,87.67 -31,167.6 -38.07,257.59 -7.8,99.62 -2.06,210.27 13.79,305.61 11.66,70.26 36.33,165.7 65.84,231.5 0,0 22.91,52.68 22.91,52.68 18.82,38.19 38.85,74.66 60.43,110.95 29.52,49.63 81.1,121.01 121.46,164.12 2.24,2.39 3.63,3.37 5.81,5.93 4.85,5.79 6.39,8 11.84,13.38 5.17,5.11 6.42,7.07 10.98,12.52 14.43,17.25 32.74,32.87 48.66,48.79 8.8,8.8 15.71,16.9 25.74,24.66 0,0 46.31,41.04 46.31,41.04 2.68,2.15 3.51,3.39 6.09,5.68 17.46,15.57 36.59,29.9 56.16,42.94 10.12,6.77 19.47,12.37 29.58,19.16 0,0 29.59,19.12 29.59,19.12 72.73,44.33 146.25,85.71 222.7,123.36 0,0 68.44,30.67 68.44,30.67 67.74,29.04 139.75,54.7 212.16,75.65zm4964.21 854.6c0,90.4 115.24,146.58 197.59,91.74 18.15,-12.08 35.82,-30.52 46.01,-49.76 13.72,6.6 31.69,10.85 46.41,15.76 74.73,24.93 150.34,54.91 220.69,90.08 68.33,34.16 134.1,70.94 197.56,113.22 30.72,20.49 60.84,41.94 89.33,65.24 0,0 42,35.3 42,35.3 3.82,3.4 5.32,3.73 9.23,7.54 23.86,23.17 49.32,44.7 71.38,69.74 2.54,2.89 4.76,4.8 7.56,7.57 2.83,2.84 4.89,4.66 7.57,7.54 3.56,3.85 3.95,5.43 7.52,9.27 61.27,65.88 112.15,141.55 152.48,222.15 7.03,14.1 13.62,27.28 20.09,42.06 6.47,14.72 11.8,28.53 18.07,44.11 41.2,102.43 59.26,215.31 59.26,333.83 0,220.86 -82.81,427.46 -195.88,597.06 -4.35,6.53 -7.71,12.06 -12.17,18.07 0,0 -24.48,34.3 -24.48,34.3 -16.21,22.55 -33.35,45.07 -51.8,65.8 -9.56,10.72 -17.66,20.75 -26.94,31.84 -21.39,25.52 -62.06,65.58 -86.45,89.95 -18.33,18.35 -47.74,46.26 -68.59,62.45 0,0 -57.09,47.06 -57.09,47.06 -41.85,32.9 -91.65,71.3 -136.89,98.31 -12.38,7.4 -23.18,15.07 -35.89,22.9 -36.79,22.61 -74.77,42.86 -111.93,64.46 -37.78,21.95 -78.27,39.78 -118.09,58.33 -54.23,25.26 -110.07,48.71 -166.79,68.39 -198.46,68.82 -349.86,109.01 -567.97,137.61 -33.24,4.36 -70.33,9 -104.95,12.67 -18.09,1.91 -37.34,2.68 -53.93,4.85 0,0 -81.9,5.46 -81.9,5.46 -16.71,-0.07 -38.7,3.26 -55.32,3.47 -9.28,0.12 -21.13,-0.81 -30.05,0.16 0,0 -285.79,-1.97 -285.79,-1.97 0,0 -112.71,-6.55 -112.71,-6.55 -53.81,-4.14 -107.12,-8.15 -161.49,-14.93 -70.96,-8.83 -139.79,-17.32 -206.81,-28.37 -199.48,-32.85 -386.63,-74.43 -575.93,-129.64 -90.85,-26.51 -179.23,-54.14 -268.8,-83.99 -65.45,-21.8 -129.61,-45.78 -194.46,-69.28 0,0 -65.73,-24.98 -65.73,-24.98 -70.13,-27.88 -140.12,-54.46 -208.89,-85.13 -14.11,-6.29 -27.13,-11.85 -41.18,-17.61 0,0 -101.05,-45.1 -101.05,-45.1 -34.06,-15.2 -68.35,-29.88 -101.34,-46.5 0,0 -314.14,-156.23 -314.14,-156.23 -45.18,-22.52 -89.23,-47.18 -133.3,-71.66 -3.89,-2.17 -6.02,-2.89 -9.92,-5.21 0,0 -85.26,-47.45 -85.26,-47.45 -31.75,-16.1 -80.71,-45.39 -112.09,-64.29 -17.14,-10.37 -143.18,-86.01 -149.42,-87.47 0,0 -44.65,72.96 -44.65,72.96 -2.86,4.65 -5.29,7.18 -5.74,12.71 38.41,20.34 78.6,46.25 116.01,68.8 0,0 39.11,23.03 39.11,23.03 26.91,14.66 51.11,29.95 77.86,44.8 40.16,22.28 78.06,45.48 118.69,66.09 7.32,3.72 12.34,7.06 19.6,10.63 0,0 161.27,85.7 161.27,85.7 7.54,3.75 13.21,7.17 20.7,11.2 53.92,29.04 109.95,54.75 164.65,82.31 0,0 62.73,29.66 62.73,29.66 7.53,3.76 13.54,7.24 21.42,10.5 8.4,3.48 12.82,5.78 20.55,9.7 0,0 105.94,48.62 105.94,48.62 15.13,6.53 28.2,12.18 43.04,19.11 101.41,47.39 246.61,103.89 351.5,144.08 74.43,28.52 149.96,55.45 226.47,80.97 94.44,31.48 188.23,59.76 283.86,87.4 16.82,4.85 31.75,8.47 48.73,13.42 32.08,9.36 65.41,17.52 97.18,25.46 140.44,35.12 373.04,85.19 516.95,101.28 17.32,1.94 34.75,4.62 53.38,7.08 54.52,7.21 112.64,14.93 168.46,18.03 17.54,0.98 39.55,4.55 57.14,5 19.81,0.51 38.35,2.77 58.87,3.3 0,0 86.32,5.09 86.32,5.09 0,0 32.42,0 32.42,0 0,0 0.49,0 0.49,0 0,0 242.94,0 242.94,0 0,0 106.94,-6.27 106.94,-6.27 27.54,-3.72 52.81,-2.5 79.72,-5.96 0,0 101.39,-11.15 101.39,-11.15 158.81,-18.16 319.65,-51.92 470.84,-96.98 57.97,-17.26 115.06,-36.03 169.79,-57 61.85,-23.7 120.93,-46.14 178.49,-75.19 7.39,-3.72 11.63,-5.66 19.53,-9.03 62.69,-26.77 195.89,-105.66 254.87,-144.97 45.14,-30.11 89.13,-61.98 131.25,-95.53 20.5,-16.33 42.33,-33.07 61.52,-51.04 20.03,-18.74 40.2,-35.19 59.64,-54.59 19.16,-19.18 37.1,-37.12 56.28,-56.28 10.13,-10.15 17.64,-19.34 27.73,-29.37 5.39,-5.38 7.94,-9.49 13.44,-15.14 3.37,-3.47 3.31,-4.03 6.02,-7.4 2.64,-3.27 4.6,-4.62 7.38,-7.76 0,0 50.53,-62.02 50.53,-62.02 35.97,-44.33 75.83,-103.38 103.55,-151.81 0,0 20.77,-36.35 20.77,-36.35 27.98,-50.01 61.91,-121.25 79.9,-175.45 0,0 27.66,-84.89 27.66,-84.89 4.5,-15.59 7.77,-29.1 11.85,-45.25 14.28,-56.52 23.23,-113.72 27.8,-172.14 11.23,-143.92 -9.25,-289.07 -56.39,-423.9 -10.96,-31.36 -23.84,-61.31 -38.19,-91.16 -11.76,-24.54 -23.21,-48.66 -37.08,-72.12 -2.49,-4.21 -4.51,-7.27 -6.99,-11.49 -9.64,-16.43 -17.85,-30.05 -28.26,-45.66 0,0 -103.88,-134.66 -103.88,-134.66 -3.62,-4.09 -4.27,-5.95 -8.38,-10.09 0,0 -17.68,-19.29 -17.68,-19.29 -11.03,-12.52 -24.91,-24.83 -36.96,-36.96 -27.46,-27.62 -66.81,-61.5 -97.87,-85.24 -55.67,-42.53 -112.06,-84.3 -173.1,-119.22 0,0 -47.03,-26.87 -47.03,-26.87 -64.53,-37.44 -181.91,-90.21 -252.55,-115.38 0,0 -80.63,-28.55 -80.63,-28.55 -9.92,-3.31 -18.31,-5.8 -27.78,-9.19 0,0 -6.86,-3.22 -6.86,-3.22 -0.33,-0.19 -0.72,-0.45 -1.05,-0.63 -0.33,-0.17 -0.74,-0.42 -1.07,-0.59 -0.53,-0.26 -3.42,-1.42 -3.58,-1.46 -4.81,-1.61 -10.87,-2.7 -14.81,-3.69 -33.16,-8.27 -74.63,-19.43 -115.17,-22.16 0,0 -34.55,0 -34.55,0 -23.91,1.84 -46.52,8.03 -65.71,21.09 -16.78,11.43 -34.54,35.38 -34.54,62.91z"/>
   <path class="fil0" d="M5987.12 103.61c3249.38,0 5883.51,2634.13 5883.51,5883.51 0,3249.38 -2634.13,5883.51 -5883.51,5883.51 -3249.38,0 -5883.51,-2634.13 -5883.51,-5883.51 0,-3249.38 2634.13,-5883.51 5883.51,-5883.51zm0 -103.61c3306.58,0 5987.12,2680.54 5987.12,5987.12 0,3306.58 -2680.54,5987.12 -5987.12,5987.12 -3306.58,0 -5987.12,-2680.54 -5987.12,-5987.12 0,-3306.58 2680.54,-5987.12 5987.12,-5987.12z"/>
   <path class="fil0" d="M9730.5 2062.25c1035.32,987.75 1680.42,2380.97 1680.42,3924.87 0,1695.83 -778.46,3209.65 -1997.34,4204.24l62.15 72.57c1239.29,-1012.1 2030.7,-2551.97 2030.7,-4276.81 0,-1572.21 -657.39,-2990.9 -1712.29,-3996.16l-63.64 71.29zm-7538.03 -82.8c-1062.06,1005.95 -1724.66,2429.37 -1724.66,4007.67 0,1743.19 808.38,3297.34 2070.43,4308.84l58.17 -75.8c-1239.34,-994.01 -2033.09,-2520.72 -2033.09,-4233.04 0,-1548.58 649.08,-2945.5 1689.94,-3933.78l-60.79 -73.89z"/>
   <path class="fil1" d="M2780.29 2055.24l-272.46 -383.09 44.87 -31.93 377.75 167.29 -24.08 17.13 -36.23 -410.17 44.87 -31.91 273.01 382.71 -52.55 37.36 -214.23 -300.06 12.59 -8.96 29.56 361.38 -25.19 17.9 -332.74 -145.73 13.68 -9.74 213.7 300.46 -52.55 37.36zm575.83 -395.83l-234.34 -407.54 58.23 -33.48 234.32 407.55 -58.21 33.47zm230.75 -131.83l-214.3 -418.42 163.19 -83.57c36.66,-18.78 70.9,-29.03 102.73,-30.73 31.82,-1.72 60.3,4.83 85.49,19.6 25.18,14.76 45.51,37.3 61.02,67.59 15.5,30.28 21.86,59.85 19.03,88.73 -2.82,28.85 -14.24,55.68 -34.21,80.51 -20,24.82 -48.31,46.63 -84.97,65.4l-130.33 66.74 12.84 -41.26 79.28 154.8 -59.77 30.61zm279.74 -143.25l-184.15 -97.36 63.96 -32.76 185.35 96.74 -65.16 33.38zm-296.19 -36.2l-41.91 -15.51 128.52 -65.83c38.24,-19.59 63.01,-42.69 74.26,-69.34 11.27,-26.65 9.25,-54.91 -6.07,-84.8 -15.3,-29.87 -36.99,-47.95 -65.1,-54.18 -28.08,-6.25 -61.27,0.43 -99.52,20.02l-128.52 65.83 11.6 -43.66 126.74 247.47zm444.01 -26.24l25.6 -515.42 61.85 -24.39 371.12 358.99 -65.59 25.86 -335.47 -332.63 24.98 -9.85 -18.14 472.06 -64.35 25.38zm41.24 -142.58l-2.86 -56.63 246.16 -97.08 37.84 42.85 -281.14 110.86zm542.39 -68.06l-105.74 -458.06 53.65 -12.38 389.84 306.31 -28.14 6.5 -86.85 -376.27 65.43 -15.1 105.74 458.06 -53.67 12.39 -389.82 -306.33 28.14 -6.49 86.85 376.26 -65.43 15.11zm589.48 -125.99l-59.3 -466.35 196.54 -24.99c49.75,-6.33 94.86,-2.12 135.31,12.59 40.46,14.72 73.47,38.28 99.02,70.68 25.55,32.41 41.27,71.7 47.15,117.89 5.86,46.21 0.49,88.18 -16.15,125.95 -16.64,37.77 -42.7,68.83 -78.2,93.2 -35.48,24.38 -78.1,39.73 -127.85,46.05l-196.52 24.98zm59.25 -66.44l125.9 -16c38.66,-4.91 71.14,-16.48 97.48,-34.73 26.34,-18.24 45.6,-41.56 57.81,-69.96 12.18,-28.42 16.07,-59.93 11.65,-94.59 -4.46,-35.08 -16.11,-64.74 -34.99,-88.96 -18.89,-24.22 -43.35,-41.87 -73.43,-52.95 -30.06,-11.07 -64.41,-14.15 -103.07,-9.24l-125.9 16 44.55 350.43zm472.13 11.24l200.95 -475.33 66.47 -1.68 225.35 464.56 -70.47 1.79 -200.93 -427.57 26.86 -0.68 -179.07 437.16 -69.16 1.75zm87.67 -119.77l16.75 -54.18 264.53 -6.68 20.84 53.23 -302.12 7.63zm712.31 140.92l59.28 -466.36 209.19 26.61c53.73,6.82 93.68,22.84 119.8,48.05 26.14,25.22 36.84,56.48 32.09,93.78 -3.22,25.32 -11.59,45.92 -25.11,61.81 -13.55,15.88 -30.44,27.27 -50.72,34.17 -20.29,6.91 -41.54,8.95 -63.74,6.11l14.54 -18.46c26.65,3.4 49.6,11.03 68.84,22.95 19.24,11.94 33.71,27.66 43.42,47.15 9.71,19.53 12.86,42.63 9.47,69.26 -5.07,39.98 -24.01,69.05 -56.78,87.22 -32.77,18.17 -78.69,23.51 -137.78,15.99l-222.5 -28.28zm73.46 -45.5l153.25 19.49c36.85,4.69 65.86,2.06 86.98,-7.89 21.12,-9.96 33.38,-28.26 36.77,-54.91 3.45,-27.1 -3.81,-48.11 -21.77,-63.03 -17.96,-14.92 -45.4,-24.72 -82.25,-29.41l-159.24 -20.24 6.87 -53.97 142.58 18.12c33.75,4.29 60.73,1.42 80.98,-8.64 20.24,-10.07 31.94,-27.52 35.1,-52.41 3.15,-24.86 -3.8,-44.71 -20.87,-59.53 -17.09,-14.79 -42.49,-24.34 -76.24,-28.63l-136.58 -17.37 -45.58 358.42zm604.45 -110.21l235.57 54.39 -12.83 55.61 -235.57 -54.39 12.83 -55.61zm-41.09 204.87l267 61.62 -13.15 56.94 -332.42 -76.73 105.73 -458.06 323.27 74.61 -13.13 56.92 -257.84 -59.51 -79.46 344.21zm343.31 152.64l352.33 -377.1 62.97 21.31 51.63 513.75 -66.78 -22.58 -41.43 -470.61 25.44 8.61 -318.64 348.78 -65.52 -22.16zm123.54 -82.28l34.39 -45.09 250.66 84.81 1.23 57.14 -286.28 -96.86zm619.53 388.48c-55.01,-28.17 -90.19,-66.04 -105.54,-113.65 -15.36,-47.6 -7.53,-101.69 23.48,-162.26l121.85 -237.92 59.77 30.62 -120.62 235.51c-23.87,46.64 -31.05,85.96 -21.55,117.98 9.5,32.04 32.98,57.64 70.46,76.83 37.84,19.39 72.55,23.58 104.08,12.56 31.55,-11.01 59.25,-39.81 83.14,-86.45l120.6 -235.51 57.99 29.69 -121.84 237.92c-31,60.55 -70.23,98.59 -117.64,114.05 -47.4,15.46 -98.79,9 -154.18,-19.37zm419.96 228.72l222.19 -346.59 -135.68 -86.99 31.53 -49.17 327.35 209.85 -31.53 49.19 -135.69 -87 -222.17 346.59 -56 -35.88zm384.15 264.42l111.21 -141.53 -13.58 42.31 46.03 -385.79 56.51 44.41 -39.44 325.17 -30.62 -24.06 307.14 -114.81 52.3 41.09 -363.41 136.38 37.35 -23.62 -111.21 141.53 -52.28 -41.08z"/>
   <path class="fil1" d="M2900.15 10557.09l255.01 -394.93 46.27 29.87 51.74 493.08 -24.26 -15.67 209.48 -324.41 56.41 36.44 -255 394.92 -46.28 -29.87 -51.74 -493.06 24.25 15.65 -209.47 324.41 -56.41 -36.43zm484.89 306l386.77 -341.65 60.65 27.24 2.25 516.33 -64.32 -28.88 3.8 -472.4 24.5 10.99 -350.55 316.71 -63.1 -28.34zm130.85 -70.07l38.54 -41.61 241.39 108.41 -4.24 57 -275.69 -123.8zm474.89 334.63l174.22 -436.63 62.37 24.88 -174.22 436.64 -62.37 -24.89zm287.21 107.26l126.48 -452.76 64.67 18.06 -110.75 396.49 245.15 68.48 -15.71 56.28 -309.84 -86.55zm608.56 162.03c-35.22,-6.44 -67.93,-18 -98.11,-34.67 -30.19,-16.67 -52.95,-35.29 -68.31,-55.85l33.87 -47.06c14.81,18.64 34.92,35.52 60.38,50.64 25.45,15.13 52.93,25.4 82.44,30.78 26.87,4.93 49.23,5.82 67.09,2.71 17.88,-3.09 31.75,-9.32 41.66,-18.66 9.89,-9.33 16.09,-20.84 18.59,-34.5 2.9,-15.84 0.06,-29.56 -8.51,-41.14 -8.58,-11.58 -20.6,-21.87 -36.01,-30.82 -15.43,-8.98 -32.65,-17.47 -51.66,-25.49 -19.02,-8.03 -38,-16.87 -56.95,-26.46 -18.96,-9.61 -35.85,-20.56 -50.66,-32.84 -14.84,-12.27 -25.87,-27.14 -33.14,-44.63 -7.27,-17.5 -8.65,-38.57 -4.14,-63.23 4.35,-23.77 14.63,-44.54 30.86,-62.29 16.21,-17.74 38.52,-30.27 66.94,-37.59 28.41,-7.31 62.88,-7.27 103.4,0.15 26.88,4.9 52.88,13.31 78,25.18 25.15,11.88 46.19,26.19 63.15,42.96l-31.47 48.87c-17.39,-16.85 -36.56,-30.26 -57.51,-40.22 -20.91,-9.98 -41.73,-16.86 -62.43,-20.64 -25.98,-4.77 -47.95,-5.35 -65.9,-1.82 -17.94,3.54 -31.76,10.13 -41.49,19.72 -9.72,9.61 -15.83,21.23 -18.33,34.89 -2.98,16.29 -0.19,30.24 8.4,41.81 8.58,11.59 20.6,21.74 36.06,30.5 15.46,8.75 32.69,17.24 51.66,25.5 18.98,8.22 37.97,17.07 56.95,26.46 18.98,9.39 35.91,20.21 50.72,32.47 14.82,12.27 25.9,27.05 33.2,44.33 7.32,17.26 8.75,38 4.32,62.22 -4.27,23.34 -14.61,43.87 -31.06,61.56 -16.42,17.71 -39.07,30.18 -67.94,37.41 -28.87,7.24 -63.55,7.16 -104.07,-0.25zm677.04 92.45c-31.71,-2.42 -59.43,-9.69 -83.21,-21.82 -23.76,-12.15 -42.11,-27.91 -55,-47.31 -12.9,-19.38 -18.42,-41.13 -16.58,-65.24 1.59,-20.98 7.74,-39.82 18.46,-56.53 10.69,-16.68 26.93,-32.4 48.71,-47.14 21.77,-14.73 50.06,-29.51 84.88,-44.38 28.31,-12.21 50.57,-23.1 66.8,-32.63 16.23,-9.53 27.94,-18.86 35.13,-27.97 7.2,-9.1 11.24,-19.24 12.08,-30.4 1.17,-15.17 -3.25,-27.97 -13.23,-38.4 -9.98,-10.41 -25.02,-16.38 -45.11,-17.91 -20.99,-1.6 -37.79,2.4 -50.41,12 -12.64,9.59 -19.61,22.86 -20.9,39.83 -0.64,8.46 0.19,16.74 2.5,24.77 2.31,8.03 7,17.15 14.08,27.34 7.09,10.2 17.42,23.22 31.03,39.07l229.01 265.3 -39.42 40.1 -243.23 -281.88c-14.44,-16.81 -25.66,-31.69 -33.66,-44.64 -7.99,-12.96 -13.55,-25.41 -16.67,-37.32 -3.14,-11.91 -4.26,-23.89 -3.33,-35.94 1.59,-20.98 8.24,-39.01 19.95,-54.05 11.69,-15.05 27.35,-26.21 46.99,-33.46 19.64,-7.27 42.19,-9.93 67.63,-7.99 23.66,1.8 43.89,7.27 60.72,16.4 16.8,9.15 29.45,21.33 37.95,36.57 8.5,15.25 11.97,33.12 10.41,53.68 -1.37,17.84 -6.98,34.04 -16.85,48.54 -9.87,14.52 -24.93,28.2 -45.2,41.01 -20.3,12.84 -47.36,26.26 -81.22,40.3 -27.83,11.79 -49.79,23.05 -65.88,33.71 -16.06,10.67 -27.78,21.57 -35.16,32.68 -7.35,11.11 -11.55,23.6 -12.61,37.44 -1.13,14.71 2.24,28.12 10.08,40.15 7.84,12.07 19.44,21.81 34.81,29.28 15.38,7.45 33.55,11.97 54.53,13.57 29.92,2.28 57.43,-2.14 82.5,-13.25 25.11,-11.11 46.79,-28.99 65.05,-53.63 18.27,-24.66 32.66,-55.91 43.18,-93.71l50.29 20.67c-12.37,44.41 -30.57,81.42 -54.59,111.02 -24.05,29.58 -52.54,51.45 -85.49,65.54 -32.94,14.11 -69.3,19.66 -109.02,16.63zm615.43 12.37l-35.69 -468.76 66.94 -5.1 31.28 410.5 253.81 -19.34 4.43 58.26 -320.77 24.44zm426.59 -21.79l124.82 -500.75 65.4 -11.97 294.66 424.03 -69.35 12.67 -264.77 -391.25 26.41 -4.83 -109.12 459.65 -68.05 12.45zm68.03 -131.93l8.16 -56.11 260.3 -47.61 28.83 49.35 -297.29 54.37zm715.47 -20.82c-34.48,9.69 -68.94,13.69 -103.37,11.98 -34.43,-1.72 -63.06,-8.43 -85.9,-20.16l9.74 -57.14c21.49,10.23 46.97,16.56 76.49,18.95 29.51,2.41 58.71,-0.46 87.59,-8.58 26.3,-7.39 46.77,-16.41 61.45,-27.05 14.7,-10.64 24.42,-22.34 29.22,-35.08 4.78,-12.73 5.29,-25.79 1.53,-39.16 -4.36,-15.51 -12.93,-26.57 -25.73,-33.2 -12.8,-6.65 -28.1,-10.6 -45.89,-11.88 -17.79,-1.27 -37,-1.34 -57.61,-0.19 -20.61,1.15 -41.54,1.56 -62.78,1.26 -21.25,-0.29 -41.22,-2.71 -59.94,-7.22 -18.71,-4.5 -35.16,-13.01 -49.38,-25.52 -14.21,-12.53 -24.72,-30.84 -31.51,-54.98 -6.53,-23.27 -6.44,-46.45 0.35,-69.51 6.76,-23.06 21.3,-44.12 43.6,-63.2 22.31,-19.05 53.3,-34.16 92.96,-45.3 26.3,-7.4 53.33,-11.29 81.13,-11.67 27.8,-0.38 53,3.24 75.6,10.84l-6.79 57.72c-23.03,-7.48 -46.13,-11.1 -69.34,-10.86 -23.17,0.24 -44.88,3.21 -65.16,8.91 -25.42,7.14 -45.41,16.26 -59.98,27.34 -14.55,11.06 -24.08,23.05 -28.61,35.94 -4.5,12.9 -4.88,26.03 -1.12,39.39 4.48,15.94 13.12,27.24 25.92,33.87 12.78,6.65 28.06,10.47 45.8,11.53 17.72,1.08 36.94,1.14 57.6,0.2 20.68,-0.94 41.6,-1.34 62.79,-1.26 21.18,0.1 41.14,2.38 59.84,6.89 18.69,4.51 35.14,12.91 49.3,25.22 14.15,12.29 24.56,30.3 31.22,54 6.43,22.83 6.16,45.83 -0.84,68.95 -6.97,23.12 -21.84,44.27 -44.6,63.46 -22.73,19.19 -53.93,34.35 -93.58,45.51zm506 -670.42l62.58 -24.36 170.49 438.1 -62.58 24.36 -170.49 -438.1zm-81.12 536.02l-62.58 24.35 -170.49 -438.12 62.58 -24.34 170.49 438.11zm181.25 -295.38l-263.49 102.54 -21.19 -54.45 263.48 -102.54 21.2 54.45zm286.1 -190.13l215.92 -108.77 25.68 50.99 -215.92 108.75 -25.68 -50.97zm99.36 183.82l244.72 -123.28 26.28 52.18 -304.7 153.49 -211.47 -419.85 296.3 -149.26 26.27 52.19 -236.32 119.03 158.92 315.5zm567.93 -245.38c-30.21,19.26 -62.04,33.04 -95.48,41.38 -33.46,8.32 -62.81,10.19 -88.07,5.56l-7.2 -57.52c23.52,3.58 49.76,2.26 78.71,-3.99 28.93,-6.25 56.04,-17.44 81.34,-33.57 23.03,-14.68 40.02,-29.25 51,-43.67 10.98,-14.44 16.91,-28.44 17.81,-42.03 0.89,-13.57 -2.39,-26.23 -9.85,-37.92 -8.67,-13.6 -20.09,-21.7 -34.26,-24.36 -14.17,-2.65 -29.95,-2.01 -47.35,1.93 -17.41,3.94 -35.81,9.43 -55.2,16.48 -19.4,7.06 -39.31,13.52 -59.73,19.38 -20.43,5.87 -40.25,9.34 -59.45,10.44 -19.23,1.1 -37.45,-2.28 -54.66,-10.13 -17.25,-7.88 -32.6,-22.38 -46.08,-43.52 -12.99,-20.39 -19.59,-42.59 -19.78,-66.64 -0.21,-24.02 7.62,-48.4 23.44,-73.1 15.85,-24.71 41.13,-48.12 75.86,-70.28 23.03,-14.7 47.8,-26.22 74.29,-34.64 26.51,-8.41 51.67,-12.24 75.49,-11.51l10.22 57.21c-24.21,-0.49 -47.37,2.73 -69.51,9.68 -22.11,6.95 -42.05,16.06 -59.79,27.38 -22.27,14.2 -38.77,28.72 -49.51,43.53 -10.74,14.79 -16.38,29.03 -16.99,42.69 -0.56,13.64 2.87,26.31 10.33,38.03 8.91,13.96 20.45,22.27 34.62,24.91 14.15,2.67 29.89,1.92 47.16,-2.21 17.3,-4.1 35.69,-9.6 55.22,-16.47 19.49,-6.88 39.42,-13.34 59.73,-19.38 20.3,-6.04 40.05,-9.63 59.26,-10.73 19.21,-1.1 37.38,2.2 54.48,9.87 17.12,7.67 32.29,21.88 45.52,42.65 12.76,20.01 19.16,42.08 19.16,66.25 0.02,24.15 -8.09,48.69 -24.32,73.66 -16.21,24.94 -41.7,48.48 -76.41,70.64z"/>
  </g>
 </g>
</svg>
